<?xml version="1.0" encoding="UTF-8"?>
<!DOCTYPE svg PUBLIC "-//W3C//DTD SVG 1.1//EN" "http://www.w3.org/Graphics/SVG/1.1/DTD/svg11.dtd">
<svg xmlns="http://www.w3.org/2000/svg" version="1.1" width="1500px" height="193px" style="shape-rendering:geometricPrecision; text-rendering:geometricPrecision; image-rendering:optimizeQuality; fill-rule:evenodd; clip-rule:evenodd" xmlns:xlink="http://www.w3.org/1999/xlink">
<g><path style="opacity:1" fill="#fefefe" d="M -0.5,-0.5 C 499.5,-0.5 999.5,-0.5 1499.5,-0.5C 1499.5,63.8333 1499.5,128.167 1499.5,192.5C 999.5,192.5 499.5,192.5 -0.5,192.5C -0.5,128.167 -0.5,63.8333 -0.5,-0.5 Z"/></g>
<g><path style="opacity:1" fill="#fdc612" d="M 390.5,49.5 C 392.722,49.178 394.556,49.8446 396,51.5C 396.333,77.1667 396.667,102.833 397,128.5C 403.833,121.667 410.667,114.833 417.5,108C 419.167,107.333 420.833,107.333 422.5,108C 424.683,110.35 427.016,112.517 429.5,114.5C 436.319,108.181 442.986,101.681 449.5,95C 451.167,94.3333 452.833,94.3333 454.5,95C 456.5,97 458.5,99 460.5,101C 461.5,101.667 462.5,101.667 463.5,101C 476.5,88 489.5,75 502.5,62C 508.241,61.0048 510.075,63.1715 508,68.5C 493.833,82.6667 479.667,96.8333 465.5,111C 463.956,112.187 462.289,112.52 460.5,112C 457.984,109.317 455.317,106.817 452.5,104.5C 445.681,110.819 439.014,117.319 432.5,124C 430.5,124.667 428.5,124.667 426.5,124C 424.317,121.65 421.984,119.483 419.5,117.5C 413.681,122.818 408.015,128.318 402.5,134C 443.833,134.333 485.167,134.667 526.5,135C 528.396,136.808 528.896,138.975 528,141.5C 482.238,142.663 436.404,142.83 390.5,142C 390,141.5 389.5,141 389,140.5C 388.833,125.5 388.667,110.5 388.5,95.5C 388.516,79.9464 389.182,64.613 390.5,49.5 Z"/></g>
<g><path style="opacity:1" fill="#fdc71a" d="M 507.5,50.5 C 511.182,50.3347 514.848,50.5014 518.5,51C 519,51.5 519.5,52 520,52.5C 520.112,60.833 519.778,69.1663 519,77.5C 517.419,80.5534 515.086,81.22 512,79.5C 511.5,72.8417 511.334,66.175 511.5,59.5C 504.825,59.6663 498.158,59.4996 491.5,59C 488.808,56.3676 489.141,54.0342 492.5,52C 497.684,51.8261 502.684,51.3261 507.5,50.5 Z"/></g>
<g><path style="opacity:1" fill="#2a2c2d" d="M 584.5,62.5 C 593.902,61.1952 602.569,63.0285 610.5,68C 615.291,71.7423 617.124,76.5756 616,82.5C 613.28,86.6439 609.78,87.4772 605.5,85C 604.086,79.2548 600.419,75.9215 594.5,75C 589.848,73.8069 585.681,74.6403 582,77.5C 581.161,80.1396 581.661,82.4729 583.5,84.5C 591.012,87.9509 598.678,91.1175 606.5,94C 617.287,100.492 619.454,109.325 613,120.5C 600.979,130.988 588.146,132.155 574.5,124C 567.169,118.1 565.836,111.267 570.5,103.5C 578.017,101.505 581.517,104.505 581,112.5C 581.465,113.931 582.299,115.097 583.5,116C 588.5,116.667 593.5,116.667 598.5,116C 603.115,114.923 604.615,112.09 603,107.5C 602.167,106.667 601.333,105.833 600.5,105C 592.675,102.392 585.009,99.392 577.5,96C 568.641,90.6924 566.141,83.1924 570,73.5C 573.857,68.4678 578.69,64.8011 584.5,62.5 Z"/></g>
<g><path style="opacity:1" fill="#fdc612" d="M 943.5,62.5 C 947.287,61.8144 950.454,62.8144 953,65.5C 953.333,71.5 953.667,77.5 954,83.5C 961.192,79.4706 968.359,79.6373 975.5,84C 976.787,85.4095 977.954,86.9095 979,88.5C 980.604,100.429 980.937,112.429 980,124.5C 977.176,129.028 973.51,129.695 969,126.5C 968.667,115.833 968.333,105.167 968,94.5C 962.87,91.4753 958.204,92.142 954,96.5C 953.667,106.5 953.333,116.5 953,126.5C 949.333,129.167 945.667,129.167 942,126.5C 940.357,106.256 940.024,85.9227 941,65.5C 942.045,64.6266 942.878,63.6266 943.5,62.5 Z"/></g>
<g><path style="opacity:1" fill="#2a2c2d" d="M 760.5,63.5 C 764.594,62.7046 767.761,64.038 770,67.5C 770.333,77.5 770.667,87.5 771,97.5C 776.5,92 782,86.5 787.5,81C 794.384,79.8841 797.218,82.7174 796,89.5C 792.353,93.9819 788.519,98.3152 784.5,102.5C 788.429,108.599 792.929,114.265 798,119.5C 798.55,127.484 795.05,129.984 787.5,127C 782.949,121.955 778.616,116.788 774.5,111.5C 773.186,112.313 772.019,113.313 771,114.5C 770.667,118.167 770.333,121.833 770,125.5C 765.694,129.675 761.694,129.342 758,124.5C 757.333,105.167 757.333,85.8333 758,66.5C 759.045,65.6266 759.878,64.6266 760.5,63.5 Z"/></g>
<g><path style="opacity:1" fill="#fdc611" d="M 804.5,62.5 C 808.602,62.6395 811.436,64.6395 813,68.5C 815.387,80.0506 818.387,91.384 822,102.5C 826.502,89.339 831.669,76.5057 837.5,64C 841.274,62.8175 844.441,63.6508 847,66.5C 851.4,79.0333 855.4,91.6999 859,104.5C 861.924,91.2868 865.591,78.2868 870,65.5C 873.06,62.0645 876.393,61.7312 880,64.5C 881.422,67.0301 881.755,69.6967 881,72.5C 876.345,90.9599 870.845,109.127 864.5,127C 860.526,129.364 857.026,128.864 854,125.5C 849.596,112.786 845.096,100.119 840.5,87.5C 835.571,100.452 830.738,113.452 826,126.5C 822.264,129.089 818.598,129.089 815,126.5C 810.024,109.265 805.358,91.9319 801,74.5C 800.333,71.5 800.333,68.5 801,65.5C 802.145,64.3636 803.312,63.3636 804.5,62.5 Z"/></g>
<g><path style="opacity:1" fill="#fdc617" d="M 890.5,62.5 C 897.825,61.9924 900.658,65.3258 899,72.5C 894.648,76.6646 890.648,76.3313 887,71.5C 886.333,69.8333 886.333,68.1667 887,66.5C 888.376,65.2949 889.542,63.9616 890.5,62.5 Z"/></g>
<g><path style="opacity:1" fill="#282a2b" d="M 990.5,63.5 C 993.649,63.2114 996.649,63.7114 999.5,65C 1005.96,73.9614 1012.96,82.4614 1020.5,90.5C 1027.64,81.5208 1034.98,72.6874 1042.5,64C 1046.58,62.7069 1049.75,63.8735 1052,67.5C 1052.67,86.5 1052.67,105.5 1052,124.5C 1049.79,128.125 1046.63,129.292 1042.5,128C 1041.3,127.097 1040.47,125.931 1040,124.5C 1039.67,112.167 1039.33,99.8333 1039,87.5C 1034.28,93.2206 1029.95,99.2206 1026,105.5C 1023.42,107.347 1020.59,107.847 1017.5,107C 1011.62,100.793 1006.12,94.2934 1001,87.5C 1000.67,100.167 1000.33,112.833 1000,125.5C 996.333,129.5 992.667,129.5 989,125.5C 988.576,105.811 988.243,86.1442 988,66.5C 989.045,65.6266 989.878,64.6266 990.5,63.5 Z"/></g>
<g><path style="opacity:1" fill="#3a3c3d" d="M 546.5,62.5 C 548.911,62.1367 550.411,63.1367 551,65.5C 551.667,85.5 551.667,105.5 551,125.5C 549.437,130.254 547.437,130.587 545,126.5C 544.333,106.167 544.333,85.8333 545,65.5C 545.513,64.4734 546.013,63.4734 546.5,62.5 Z"/></g>
<g><path style="opacity:1" fill="#fdc610" d="M 914.5,67.5 C 923.162,66.8395 926.496,70.8395 924.5,79.5C 929.604,78.6118 932.937,80.6118 934.5,85.5C 933.007,91.0873 929.34,93.4207 923.5,92.5C 923.17,99.5316 923.503,106.532 924.5,113.5C 929.014,114.85 932.014,117.683 933.5,122C 933.333,126.167 931.167,128.333 927,128.5C 921.58,127.124 916.913,124.458 913,120.5C 911.58,110.914 911.08,101.247 911.5,91.5C 904.97,91.7565 902.803,88.7565 905,82.5C 906.509,80.0807 908.675,79.0807 911.5,79.5C 910.769,74.9275 911.769,70.9275 914.5,67.5 Z"/></g>
<g><path style="opacity:1" fill="#27292a" d="M 638.5,71.5 C 638.5,74.5 638.5,77.5 638.5,80.5C 640.5,80.5 642.5,80.5 644.5,80.5C 646.017,80.5106 647.184,81.1772 648,82.5C 649.327,90.0043 646.16,93.0043 638.5,91.5C 638.334,98.8409 638.5,106.174 639,113.5C 641.087,114.794 643.254,115.961 645.5,117C 647.478,119.497 647.978,122.331 647,125.5C 645.818,127.357 644.151,128.357 642,128.5C 636.58,127.124 631.913,124.458 628,120.5C 626.58,110.914 626.08,101.247 626.5,91.5C 622.135,92.0072 619.802,90.1739 619.5,86C 619.582,81.4252 621.915,79.5919 626.5,80.5C 626.335,77.1501 626.502,73.8168 627,70.5C 629.21,67.7104 632.044,66.877 635.5,68C 637.426,68.4224 638.426,69.5891 638.5,71.5 Z"/></g>
<g><path style="opacity:1" fill="#7e7f80" d="M 638.5,71.5 C 639.473,73.9479 639.806,76.6146 639.5,79.5C 641.415,79.2155 643.081,79.5489 644.5,80.5C 642.5,80.5 640.5,80.5 638.5,80.5C 638.5,77.5 638.5,74.5 638.5,71.5 Z"/></g>
<g><path style="opacity:1" fill="#292b2c" d="M 670.5,79.5 C 694.902,80.7498 703.402,93.0831 696,116.5C 690.679,127.734 681.845,131.9 669.5,129C 656.811,122.791 651.644,112.624 654,98.5C 656.287,89.1882 661.787,82.8548 670.5,79.5 Z"/></g>
<g><path style="opacity:1" fill="#fdc61b" d="M 890.5,80.5 C 892.857,80.3367 895.19,80.5034 897.5,81C 898.701,81.9025 899.535,83.0692 900,84.5C 900.667,97.8333 900.667,111.167 900,124.5C 896.306,129.342 892.306,129.675 888,125.5C 887.333,111.5 887.333,97.5 888,83.5C 889.045,82.6266 889.878,81.6266 890.5,80.5 Z"/></g>
<g><path style="opacity:1" fill="#292b2c" d="M 723.5,80.5 C 731.497,79.5551 738.497,81.7218 744.5,87C 749.129,92.6556 747.963,96.489 741,98.5C 737.355,97.5271 734.188,95.6938 731.5,93C 725.262,92.5429 721.095,95.3762 719,101.5C 717.328,107.658 719.162,112.491 724.5,116C 727.5,116.667 730.5,116.667 733.5,116C 735.293,112.29 737.626,108.957 740.5,106C 745.711,104.768 748.711,106.768 749.5,112C 746.15,124.851 737.816,130.517 724.5,129C 706.386,121.608 701.552,109.108 710,91.5C 713.792,86.866 718.292,83.1994 723.5,80.5 Z"/></g>
<g><path style="opacity:1" fill="#2a2c2d" d="M 1079.5,80.5 C 1092.77,77.884 1102.27,82.5507 1108,94.5C 1108.67,98.1667 1108.67,101.833 1108,105.5C 1106.42,107.041 1104.59,108.208 1102.5,109C 1093.48,109.168 1084.48,109.668 1075.5,110.5C 1078.27,118.051 1083.61,120.551 1091.5,118C 1094.7,116.105 1097.87,114.272 1101,112.5C 1106.52,114.04 1107.85,117.374 1105,122.5C 1092.37,132.14 1080.03,131.807 1068,121.5C 1058.16,103.864 1061.99,90.1975 1079.5,80.5 Z"/></g>
<g><path style="opacity:1" fill="#f3f4f4" d="M 1080.5,91.5 C 1084.9,91.2281 1089.24,91.5614 1093.5,92.5C 1095.99,94.578 1096.99,97.2447 1096.5,100.5C 1089.5,100.5 1082.5,100.5 1075.5,100.5C 1075.89,96.7793 1077.56,93.7793 1080.5,91.5 Z"/></g>
<g><path style="opacity:1" fill="#f7f7f7" d="M 671.5,92.5 C 684.391,91.8973 688.891,97.8973 685,110.5C 683.303,116.543 679.469,118.71 673.5,117C 666.862,112.983 664.696,107.15 667,99.5C 668.012,96.7982 669.512,94.4649 671.5,92.5 Z"/></g>
</svg>
